<svg id="Layer_1" data-name="Layer 1" xmlns="http://www.w3.org/2000/svg" viewBox="0 0 293.29 63.89"><defs><style>.cls-1{fill:#22ffd5;}.cls-2{fill:#161421;}</style></defs><polygon class="cls-1" points="280.79 48.54 293.29 0 0 0 13.06 50.68 71.19 50.68 69.61 63.89 219.44 63.89 222.85 48.54 242.53 48.54 280.79 48.54"/><polygon class="cls-2" points="42.22 3.95 27.8 27.2 21.35 3.95 7.56 3.95 17.95 43.84 31.16 43.84 56.01 3.95 42.22 3.95"/><path class="cls-2" d="M273.74,21a51,51,0,0,0-6.52-1.94,26.82,26.82,0,0,1-4.59-1.37c-.93-.41-1.39-1-1.39-1.71s.51-1.34,1.54-1.88a9.56,9.56,0,0,1,4.33-.79,22.4,22.4,0,0,1,5.78.74,18.06,18.06,0,0,1,5.16,2.22l4.84-9.8a23.16,23.16,0,0,0-6.64-2.54A36.92,36.92,0,0,0,268,3a28.62,28.62,0,0,0-10.77,1.85,15.5,15.5,0,0,0-7,5.24,13.28,13.28,0,0,0-2.42,7.9,8.38,8.38,0,0,0,2,5.78,12.49,12.49,0,0,0,4.59,3.25A56.18,56.18,0,0,0,261,29.14a28.74,28.74,0,0,1,4.42,1.36c.93.42,1.39,1,1.39,1.66s-.45,1.29-1.36,1.71a9.91,9.91,0,0,1-3.93.62A26.56,26.56,0,0,1,248,30.79l-5.19,9.91a26.1,26.1,0,0,0,7.52,2.94,41.13,41.13,0,0,0,9.75,1.11,28.45,28.45,0,0,0,10.71-1.85,15.75,15.75,0,0,0,7-5.22,12.91,12.91,0,0,0,2.45-7.8,8.22,8.22,0,0,0-1.94-5.7A11.77,11.77,0,0,0,273.74,21Z"/><path class="cls-2" d="M163.88,30.11A14.24,14.24,0,0,0,166,37.86a13.46,13.46,0,0,0,6,5.09,18,18,0,0,0,1.69.66l6-10.46a4,4,0,0,1-.8-.59,5.28,5.28,0,0,1-1.37-4,13.86,13.86,0,0,1,.34-2.91L182.17,4H168.72l-4.39,21.94A23.11,23.11,0,0,0,163.88,30.11Z"/><path class="cls-2" d="M181.2,44.75q9.12,0,14.59-4.62t7.29-13.67L207.58,4H194.36L190,25.66q-.92,4.44-2.56,6.33a5.33,5.33,0,0,1-2.3,1.5l-6.12,11.17C179.75,44.71,180.46,44.75,181.2,44.75Z"/><path class="cls-2" d="M245.65,17.17q0-6.27-4.39-9.74T228.9,4H211.18l-9.13,43.57H92.64L100.84,4H87.4L77.08,58H213.33l4.49-20.45L221.58,19l.94-4.67H227q5,0,5,4.05a5,5,0,0,1-1.54,3.9,6.21,6.21,0,0,1-4.33,1.4h-2l-2,10.37h3.29a25.15,25.15,0,0,0,10.63-2.11A16.3,16.3,0,0,0,243.17,26,15.78,15.78,0,0,0,245.65,17.17Z"/><polygon class="cls-2" points="76.12 3.95 62.91 3.95 37.49 43.84 51.68 43.84 55.67 36.89 67.33 36.89 65.79 28.78 60.27 28.8 67.06 17 68.87 26.53 70.87 36.89 70.88 36.89 71.33 39.28 71.34 39.29 72.19 43.84 75.94 43.84 80.24 21.32 76.12 3.95"/><polygon class="cls-2" points="130.06 43.84 134.64 25.26 146.1 43.84 157.15 43.84 164.57 3.95 151.59 3.95 148.32 22.53 136.87 3.95 125.81 3.95 119.53 32.19 113.57 32.19 120.13 3.95 120.06 3.95 111.79 10.57 105.45 3.95 105.27 3.95 97.7 43.84 130.06 43.84"/></svg>